<svg width="399" height="72" viewBox="0 0 399 72" fill="none" xmlns="http://www.w3.org/2000/svg">
<g filter="url(#filter0_d_154_197)">
<path d="M4 3.2H7.2V0H39.2V3.2H42.4V64H29.6V38.4H16.8V64H4V3.2ZM16.8 25.6H29.6V12.8H16.8V25.6ZM7.2 6.4H10.4V3.2H7.2V6.4ZM48.8125 3.2H52.0125V0H61.6125V12.8H84.0125V16H87.2125V60.8H84.0125V64H48.8125V3.2ZM61.6125 51.2H74.4125V25.6H61.6125V51.2ZM52.0125 6.4H55.2125V3.2H52.0125V6.4ZM93.625 16H96.825V12.8H128.825V16H132.025V60.8H128.825V64H96.825V60.8H93.625V16ZM106.425 51.2H119.225V25.6H106.425V51.2ZM96.825 19.2H100.025V16H96.825V19.2ZM138.438 16H141.638V12.8H151.238V51.2H164.038V12.8H173.638V16H176.838V60.8H173.638V64H141.638V60.8H138.438V16ZM141.638 19.2H144.838V16H141.638V19.2ZM183.25 19.2H189.65V3.2H192.85V0H202.45V19.2H212.05V32H202.45V51.2H215.25V60.8H212.05V64H192.85V60.8H189.65V32H183.25V19.2ZM192.85 6.4H196.05V3.2H192.85V6.4ZM266.438 3.2H269.638V0H301.638V3.2H304.838V19.2H292.038V12.8H279.238V51.2H292.038V44.8H304.838V60.8H301.638V64H269.638V60.8H266.438V3.2ZM269.638 6.4H272.838V3.2H269.638V6.4ZM311.25 3.2H314.45V0H346.45V3.2H349.65V19.2H336.85V12.8H324.05V25.6H346.45V28.8H349.65V60.8H346.45V64H314.45V60.8H311.25V44.8H324.05V51.2H336.85V38.4H314.45V35.2H311.25V3.2ZM314.45 6.4H317.65V3.2H314.45V6.4ZM356.062 3.2H359.263V0H391.263V3.2H394.463V12.8H368.863V25.6H388.062V38.4H368.863V51.2H394.463V60.8H391.263V64H359.263V60.8H356.062V3.2ZM359.263 6.4H362.463V3.2H359.263V6.4Z" fill="url(#paint0_linear_154_197)" shape-rendering="crispEdges"/>
</g>
<defs>
<filter id="filter0_d_154_197" x="0" y="0" width="398.463" height="72" filterUnits="userSpaceOnUse" color-interpolation-filters="sRGB">
<feFlood flood-opacity="0" result="BackgroundImageFix"/>
<feColorMatrix in="SourceAlpha" type="matrix" values="0 0 0 0 0 0 0 0 0 0 0 0 0 0 0 0 0 0 127 0" result="hardAlpha"/>
<feOffset dy="4"/>
<feGaussianBlur stdDeviation="2"/>
<feComposite in2="hardAlpha" operator="out"/>
<feColorMatrix type="matrix" values="0 0 0 0 0.592157 0 0 0 0 0.278431 0 0 0 0 1 0 0 0 1 0"/>
<feBlend mode="normal" in2="BackgroundImageFix" result="effect1_dropShadow_154_197"/>
<feBlend mode="normal" in="SourceGraphic" in2="effect1_dropShadow_154_197" result="shape"/>
</filter>
<linearGradient id="paint0_linear_154_197" x1="202.5" y1="16" x2="202.5" y2="80" gradientUnits="userSpaceOnUse">
<stop stop-color="#E2521D"/>
<stop offset="1" stop-color="#E2521D" stop-opacity="0"/>
</linearGradient>
</defs>
</svg>
