<svg width="325" height="28" viewBox="0 0 325 28" fill="none" xmlns="http://www.w3.org/2000/svg">
<path d="M28.56 20V24H24.56V28H8.56V24H4.56V20H0.56V8H4.56V4H8.56V-1.90735e-06H24.56V4H28.56V8H20.56V4H12.56V8H8.56V20H12.56V24H20.56V20H28.56ZM61.685 4V24H57.685V28H37.685V24H33.685V4H37.685V-1.90735e-06H57.685V4H61.685ZM41.685 24H53.685V4H41.685V24ZM94.81 -1.90735e-06V28H86.81V24H82.81V20H78.81V16H74.81V28H66.81V-1.90735e-06H74.81V4H78.81V8H82.81V12H86.81V-1.90735e-06H94.81ZM125.935 -1.90735e-06V4H117.935V28H109.935V4H101.935V-1.90735e-06H125.935ZM159.068 8V28H151.068V20H139.068V28H131.068V8H135.068V4H139.068V-1.90735e-06H151.068V4H155.068V8H159.068ZM139.068 16H151.068V8H147.068V4H143.068V8H139.068V16ZM192.193 20V24H188.193V28H172.193V24H168.193V20H164.193V8H168.193V4H172.193V-1.90735e-06H188.193V4H192.193V8H184.193V4H176.193V8H172.193V20H176.193V24H184.193V20H192.193ZM223.318 -1.90735e-06V4H215.318V28H207.318V4H199.318V-1.90735e-06H223.318ZM291.568 -1.90735e-06V24H287.568V28H267.568V24H263.568V-1.90735e-06H271.568V24H283.568V-1.90735e-06H291.568ZM324.693 16V24H320.693V28H300.693V24H296.693V20H304.693V24H316.693V16H300.693V12H296.693V4H300.693V-1.90735e-06H316.693V4H320.693V8H312.693V4H304.693V12H320.693V16H324.693Z" fill="url(#paint0_linear_268_281)"/>
<defs>
<linearGradient id="paint0_linear_268_281" x1="163" y1="-12" x2="163" y2="36" gradientUnits="userSpaceOnUse">
<stop stop-color="#E2521D"/>
<stop offset="1" stop-color="#A027BE"/>
</linearGradient>
</defs>
</svg>
