<svg width="147" height="147" viewBox="0 0 147 147" fill="none" xmlns="http://www.w3.org/2000/svg">
<path d="M116.208 67.605C116.164 68.4231 115.977 69.2003 115.673 69.9122L115.489 70.3084L115.016 71.3293L114.591 72.2506L107.174 88.264L107.129 88.3592L107.121 88.3783C107.028 88.6029 106.971 88.8454 106.958 89.1012C106.955 89.1405 106.955 89.1787 106.955 89.2181V98.2832H106.954C106.954 98.3758 106.952 98.4695 106.947 98.5636C106.931 98.8385 106.896 99.1079 106.84 99.3695C106.486 101.041 105.335 102.402 103.819 103.072C103.081 103.397 102.255 103.559 101.395 103.513C100.702 103.476 100.047 103.307 99.4536 103.034C98.1295 102.424 97.1111 101.287 96.654 99.9112C96.507 99.4662 96.4184 98.995 96.3978 98.5077V88.8127C96.3978 88.5007 96.4063 88.188 96.4224 87.8719C96.4537 87.2828 96.5136 86.7029 96.6022 86.1311C96.8377 84.6001 97.2717 83.1382 97.8763 81.7703L98.1185 81.2503L101.879 73.13L101.877 73.1286C101.98 72.9136 102.043 72.674 102.056 72.4208C102.109 71.4366 101.396 70.5873 100.434 70.4418L100.339 70.4293H100.337L99.7491 70.3547L63.353 65.7091L55.8942 64.7576L55.8082 64.7466C52.3934 64.295 49.7621 61.5549 49.4302 58.2C49.3306 57.1489 49.2803 56.0846 49.2803 55.0108C49.2803 36.2955 64.4525 21.1245 83.1678 21.1245C98.7866 21.1245 111.938 31.6908 115.861 46.0655C115.942 46.365 116.02 46.6656 116.093 46.9681C116.145 47.2687 116.172 47.5792 116.172 47.8964C116.172 50.9301 113.713 53.3909 110.677 53.3909C108.131 53.3909 105.987 51.6555 105.365 49.3035C105.35 49.2396 105.334 49.1756 105.317 49.1132C102.832 39.2451 93.8963 31.9399 83.2579 31.9399C71.8462 31.9399 62.396 40.3435 60.7613 51.3016C60.7503 51.367 60.7408 51.4325 60.7316 51.499C60.7261 51.5427 60.7191 51.5861 60.7136 51.6313C60.7095 51.6732 60.707 51.7154 60.704 51.7577C60.639 52.9866 61.4611 54.0579 62.615 54.3629L63.2905 54.4485L63.5327 54.4798L105.425 59.8265L110.155 60.4292L110.215 60.4377C112.707 60.7655 114.754 62.399 115.681 64.5904C116.072 65.5143 116.263 66.5382 116.208 67.605Z" fill="#632E69"/>
<path d="M85.3199 14.7286C85.3104 14.9137 85.1513 15.0566 84.9646 15.0458C84.3196 15.0185 83.6702 15.0049 83.0183 15.0049C57.8662 15.0049 37.4755 35.3957 37.4755 60.5475C37.4755 79.5991 49.1715 95.919 65.777 102.715C65.9023 102.769 65.9869 102.896 65.9773 103.039C65.9678 103.224 65.8083 103.367 65.6219 103.356C65.6109 103.356 65.6003 103.355 65.5892 103.353C65.5892 103.353 65.5892 103.353 65.5878 103.353C65.5701 103.349 65.5525 103.345 65.5349 103.341C65.5323 103.34 65.5279 103.338 65.5238 103.337C45.6274 98.4599 30.866 80.5072 30.866 59.1062C30.866 33.9543 51.2567 13.5635 76.4088 13.5635C79.3569 13.5635 82.241 13.8452 85.0326 14.3802C85.1961 14.4033 85.3199 14.5626 85.3199 14.7286Z" fill="#E74E15"/>
<path d="M75.9175 115.458C74.5562 115.458 73.277 114.616 72.7842 113.264C72.1539 111.533 73.0469 109.62 74.7767 108.991L90.2375 103.364C91.9677 102.734 93.8812 103.627 94.51 105.357C95.1403 107.087 94.2476 109.001 92.5174 109.629L77.0567 115.256C76.6811 115.394 76.2956 115.458 75.9175 115.458Z" fill="#8F8F8F"/>
<path d="M83.9315 133.438C82.5703 133.438 81.291 132.597 80.7982 131.244C80.1679 129.514 81.061 127.6 82.7908 126.971L98.2519 121.344C99.9817 120.714 101.896 121.607 102.524 123.337C103.155 125.067 102.262 126.981 100.532 127.61L85.0708 133.236C84.6952 133.372 84.31 133.438 83.9315 133.438Z" fill="#8F8F8F"/>
<path d="M77.6366 125.267C76.2754 125.267 74.9958 124.426 74.5033 123.073C73.8731 121.343 74.7657 119.429 76.4959 118.801L100.008 110.243C101.738 109.613 103.651 110.506 104.28 112.236C104.91 113.966 104.018 115.879 102.287 116.508L78.7759 125.066C78.3999 125.202 78.0148 125.267 77.6366 125.267Z" fill="#8F8F8F"/>
</svg>
