<svg width="752" height="109" viewBox="0 0 752 109" fill="none" xmlns="http://www.w3.org/2000/svg">
<path d="M11.4846 20.6401L39.9291 62.1076L12.0871 94.3601H18.2557L42.6535 66.0786L62.0535 94.3602H85.36L55.6424 51.0398L81.8665 20.6402H75.7168L52.9142 47.0575L34.7911 20.6402L11.4846 20.6401ZM18.8506 24.5201H32.7488L77.994 90.4801H64.0958L18.8506 24.5201Z" fill="url(#paint0_linear_268_286)"/>
<path d="M263 6.24023C237.752 6.24023 217.24 26.7523 217.24 52.0002C217.24 74.92 234.145 93.888 256.163 97.1955L258.552 97.5571V61.4984H247.741V54.1777H258.552V44.4562C258.552 38.4698 259.988 34.527 262.366 32.0534C264.744 29.5797 268.258 28.3321 273.148 28.3321C277.058 28.3321 278.579 28.569 280.026 28.7465V34.7387H274.936C272.047 34.7387 269.678 36.3501 268.448 38.4965C267.218 40.6429 266.835 43.2056 266.835 45.8171V54.1737H279.571L278.437 61.4943H266.835V97.614L269.195 97.293C291.526 94.2645 308.76 75.1441 308.76 52.0002C308.76 26.7523 288.248 6.24023 263 6.24023ZM263 10.4002C286 10.4002 304.6 29.0005 304.6 52.0002C304.6 72.2382 290.114 88.8824 270.995 92.6293V65.6543H282.004L284.422 50.0137H270.995V45.8171C270.995 43.6592 271.39 41.7256 272.055 40.5643C272.721 39.403 273.362 38.8987 274.936 38.8987H284.186V24.9805L282.382 24.7368C281.135 24.568 278.286 24.1721 273.148 24.1721C267.526 24.1721 262.7 25.7037 259.368 29.169C256.037 32.6342 254.392 37.7941 254.392 44.4562V50.0177H243.581V65.6584H254.392V92.4993C235.579 88.5142 221.4 72.0191 221.4 52.0002C221.4 29.0005 240 10.4002 263 10.4002Z" fill="url(#paint1_linear_268_286)"/>
<path d="M461.96 12.1802C447.195 12.1802 435.18 24.1951 435.18 38.9602V76.0402C435.18 90.8053 447.195 102.82 461.96 102.82H499.04C513.805 102.82 525.82 90.8053 525.82 76.0402V38.9602C525.82 24.1951 513.805 12.1802 499.04 12.1802H461.96ZM461.96 16.3002H499.04C511.578 16.3002 521.7 26.422 521.7 38.9602V76.0402C521.7 88.5783 511.578 98.7002 499.04 98.7002H461.96C449.422 98.7002 439.3 88.5783 439.3 76.0402V38.9602C439.3 26.422 449.422 16.3002 461.96 16.3002ZM505.22 28.6602C504.127 28.6602 503.079 29.0942 502.307 29.8669C501.534 30.6395 501.1 31.6875 501.1 32.7802C501.1 33.8729 501.534 34.9208 502.307 35.6935C503.079 36.4661 504.127 36.9002 505.22 36.9002C506.313 36.9002 507.361 36.4661 508.133 35.6935C508.906 34.9208 509.34 33.8729 509.34 32.7802C509.34 31.6875 508.906 30.6395 508.133 29.8669C507.361 29.0942 506.313 28.6602 505.22 28.6602ZM480.5 34.8402C468.01 34.8402 457.84 45.0098 457.84 57.5002C457.84 69.9905 468.01 80.1602 480.5 80.1602C492.99 80.1602 503.16 69.9905 503.16 57.5002C503.16 45.0098 492.99 34.8402 480.5 34.8402ZM480.5 38.9602C490.764 38.9602 499.04 47.2364 499.04 57.5002C499.04 67.7639 490.764 76.0402 480.5 76.0402C470.236 76.0402 461.96 67.7639 461.96 57.5002C461.96 47.2364 470.236 38.9602 480.5 38.9602Z" fill="url(#paint2_linear_268_286)"/>
<path d="M665.08 8.47998C659.251 8.47998 654.48 13.251 654.48 19.08V86.92C654.48 92.749 659.251 97.52 665.08 97.52H732.92C738.749 97.52 743.52 92.749 743.52 86.92V19.08C743.52 13.251 738.749 8.47998 732.92 8.47998H665.08ZM665.08 12.72H732.92C736.457 12.72 739.28 15.5428 739.28 19.08V86.92C739.28 90.4572 736.457 93.28 732.92 93.28H665.08C661.543 93.28 658.72 90.4572 658.72 86.92V19.08C658.72 15.5428 661.543 12.72 665.08 12.72ZM675.68 23.3448C673.358 23.3448 671.269 24.0388 669.722 25.3406C668.175 26.6424 667.225 28.5871 667.225 30.6696C667.225 34.628 670.658 37.714 675.026 38.0192L675.034 38.0233C675.242 38.0943 675.46 38.132 675.68 38.1351C680.499 38.1351 684.135 34.7597 684.135 30.6696C684.135 30.6323 684.133 30.595 684.131 30.5578C683.915 26.5293 680.324 23.3448 675.68 23.3448ZM675.68 27.5351C678.632 27.5351 679.797 28.8533 679.924 30.7234C679.898 32.5387 678.775 33.9448 675.68 33.9448C672.743 33.9448 671.415 32.4407 671.415 30.6696C671.415 29.784 671.738 29.1167 672.417 28.5455C673.096 27.9742 674.186 27.5351 675.68 27.5351ZM669.32 40.28C668.758 40.28 668.219 40.5034 667.821 40.901C667.423 41.2985 667.2 41.8377 667.2 42.4V82.68C667.2 83.2422 667.423 83.7814 667.821 84.179C668.219 84.5766 668.758 84.7999 669.32 84.8H682.04C682.602 84.7999 683.141 84.5766 683.539 84.179C683.937 83.7814 684.16 83.2422 684.16 82.68V70.2457V42.4C684.16 41.8377 683.937 41.2985 683.539 40.901C683.141 40.5034 682.602 40.28 682.04 40.28H669.32ZM688.4 40.28C687.838 40.28 687.299 40.5034 686.901 40.901C686.503 41.2985 686.28 41.8377 686.28 42.4V82.68C686.28 83.2422 686.503 83.7814 686.901 84.179C687.299 84.5766 687.838 84.7999 688.4 84.8H701.12C701.682 84.7999 702.221 84.5766 702.619 84.179C703.017 83.7814 703.24 83.2422 703.24 82.68V61.48C703.24 59.7211 703.72 57.9715 704.565 56.8259C705.41 55.6804 706.476 54.9929 708.503 55.0289C710.592 55.0648 711.699 55.7807 712.536 56.9046C713.373 58.0285 713.84 59.7133 713.84 61.48V82.68C713.84 83.2422 714.063 83.7814 714.461 84.179C714.859 84.5766 715.398 84.7999 715.96 84.8H728.68C729.242 84.7999 729.781 84.5766 730.179 84.179C730.577 83.7814 730.8 83.2422 730.8 82.68V59.9148C730.8 53.6364 728.94 48.6632 725.753 45.2984C722.565 41.9337 718.131 40.28 713.442 40.28C708.986 40.28 705.595 41.7743 703.24 43.2985V42.4C703.24 41.8377 703.017 41.2985 702.619 40.901C702.221 40.5034 701.682 40.28 701.12 40.28H688.4ZM671.44 44.52H679.92V70.2457V80.56H671.44V44.52ZM690.52 44.52H699V47.8283C699 48.2729 699.14 48.7061 699.4 49.0668C699.66 49.4276 700.026 49.6975 700.448 49.8385C700.869 49.9795 701.325 49.9844 701.749 49.8525C702.174 49.7206 702.546 49.4587 702.813 49.1037C702.813 49.1037 706.143 44.52 713.442 44.52C717.16 44.52 720.347 45.7551 722.676 48.2134C725.005 50.6718 726.56 54.4591 726.56 59.9148V80.56H718.08V61.48C718.08 59.0066 717.487 56.4495 715.939 54.3705C714.391 52.2916 711.787 50.8441 708.577 50.7889C705.351 50.7316 702.705 52.2092 701.153 54.3126C699.601 56.4159 699 58.9989 699 61.48V80.56H690.52V44.52Z" fill="url(#paint3_linear_268_286)"/>
<defs>
<linearGradient id="paint0_linear_268_286" x1="48.4223" y1="20.6401" x2="48.4223" y2="94.3602" gradientUnits="userSpaceOnUse">
<stop stop-color="#E2521D"/>
<stop offset="1" stop-color="#A027BE"/>
</linearGradient>
<linearGradient id="paint1_linear_268_286" x1="263" y1="6.24023" x2="263" y2="97.614" gradientUnits="userSpaceOnUse">
<stop stop-color="#E2521D"/>
<stop offset="1" stop-color="#A027BE"/>
</linearGradient>
<linearGradient id="paint2_linear_268_286" x1="480.5" y1="12.1802" x2="480.5" y2="102.82" gradientUnits="userSpaceOnUse">
<stop stop-color="#E2521D"/>
<stop offset="1" stop-color="#A027BE"/>
</linearGradient>
<linearGradient id="paint3_linear_268_286" x1="699" y1="8.47998" x2="699" y2="97.52" gradientUnits="userSpaceOnUse">
<stop stop-color="#E2521D"/>
<stop offset="1" stop-color="#A027BE"/>
</linearGradient>
</defs>
</svg>
