<svg width="837" height="72" viewBox="0 0 837 72" fill="none" xmlns="http://www.w3.org/2000/svg">
<g filter="url(#filter0_d_167_135)">
<path d="M4 16H7.2V12.8H16.8V51.2H23.2V25.6H29.6V51.2H36V12.8H45.6V16H48.8V60.8H45.6V64H7.2V60.8H4V16ZM7.2 19.2H10.4V16H7.2V19.2ZM55.1875 3.2H58.3875V0H67.9875V12.8H90.3875V16H93.5875V64H80.7875V25.6H67.9875V64H55.1875V3.2ZM58.3875 6.4H61.5875V3.2H58.3875V6.4ZM100 16H103.2V12.8H135.2V16H138.4V64H103.2V60.8H100V35.2H103.2V32H125.6V25.6H100V16ZM112.8 51.2H125.6V44.8H112.8V51.2ZM103.2 19.2H106.4V16H103.2V19.2ZM144.812 19.2H151.213V3.2H154.413V0H164.013V19.2H173.613V32H164.013V51.2H176.812V60.8H173.613V64H154.413V60.8H151.213V32H144.812V19.2ZM154.413 6.4H157.613V3.2H154.413V6.4ZM228 16H231.2V12.8H250.4V16H253.6V25.6H247.2V51.2H253.6V64H228V51.2H234.4V25.6H228V16ZM234.4 3.2H237.6V0H247.2V9.6H234.4V3.2ZM231.2 19.2H234.4V16H231.2V19.2ZM260 16H263.2V12.8H295.2V16H298.4V25.6H272.8V32H295.2V35.2H298.4V60.8H295.2V64H263.2V60.8H260V51.2H285.6V44.8H263.2V41.6H260V16ZM263.2 19.2H266.4V16H263.2V19.2ZM349.625 3.2H352.825V0H384.825V12.8H362.425V51.2H375.225V38.4H368.825V25.6H384.825V28.8H388.025V60.8H384.825V64H352.825V60.8H349.625V3.2ZM352.825 6.4H356.025V3.2H352.825V6.4ZM394.438 16H397.638V12.8H429.638V16H432.838V64H397.638V60.8H394.438V35.2H397.638V32H420.038V25.6H394.438V16ZM407.238 51.2H420.038V44.8H407.238V51.2ZM397.638 19.2H400.838V16H397.638V19.2ZM439.25 16H442.45V12.8H480.85V16H484.05V64H471.25V25.6H464.85V64H458.45V25.6H452.05V64H439.25V16ZM442.45 19.2H445.65V16H442.45V19.2ZM490.438 16H493.638V12.8H525.638V16H528.838V41.6H525.638V44.8H503.238V51.2H528.838V64H493.638V60.8H490.438V16ZM503.238 32H516.038V25.6H503.238V32ZM493.638 19.2H496.838V16H493.638V19.2ZM535.25 3.2H538.45V0H570.45V3.2H573.65V19.2H560.85V12.8H548.05V25.6H570.45V28.8H573.65V60.8H570.45V64H538.45V60.8H535.25V44.8H548.05V51.2H560.85V38.4H538.45V35.2H535.25V3.2ZM538.45 6.4H541.65V3.2H538.45V6.4ZM580.062 16H583.263V12.8H592.863V51.2H599.263V25.6H605.663V51.2H612.062V12.8H621.663V16H624.863V60.8H621.663V64H583.263V60.8H580.062V16ZM583.263 19.2H586.463V16H583.263V19.2ZM631.25 16H634.45V12.8H653.65V16H656.85V25.6H650.45V51.2H656.85V64H631.25V51.2H637.65V25.6H631.25V16ZM637.65 3.2H640.85V0H650.45V9.6H637.65V3.2ZM634.45 19.2H637.65V16H634.45V19.2ZM663.25 19.2H669.65V3.2H672.85V0H682.45V19.2H692.05V32H682.45V51.2H695.25V60.8H692.05V64H672.85V60.8H669.65V32H663.25V19.2ZM672.85 6.4H676.05V3.2H672.85V6.4ZM701.625 16H704.825V12.8H736.825V16H740.025V32H727.225V25.6H714.425V51.2H727.225V44.8H740.025V60.8H736.825V64H704.825V60.8H701.625V16ZM704.825 19.2H708.025V16H704.825V19.2ZM746.438 3.2H749.638V0H759.238V12.8H781.638V16H784.838V64H772.038V25.6H759.238V64H746.438V3.2ZM749.638 6.4H752.838V3.2H749.638V6.4ZM791.25 16H816.85V19.2H820.05V22.4H823.25V19.2H826.45V16H832.85V48H826.45V28.8H823.25V35.2H820.05V28.8H816.85V48H810.45V22.4H804.05V48H797.65V22.4H791.25V16Z" fill="url(#paint0_linear_167_135)" shape-rendering="crispEdges"/>
</g>
<defs>
<filter id="filter0_d_167_135" x="0" y="0" width="836.85" height="72" filterUnits="userSpaceOnUse" color-interpolation-filters="sRGB">
<feFlood flood-opacity="0" result="BackgroundImageFix"/>
<feColorMatrix in="SourceAlpha" type="matrix" values="0 0 0 0 0 0 0 0 0 0 0 0 0 0 0 0 0 0 127 0" result="hardAlpha"/>
<feOffset dy="4"/>
<feGaussianBlur stdDeviation="2"/>
<feComposite in2="hardAlpha" operator="out"/>
<feColorMatrix type="matrix" values="0 0 0 0 0.592157 0 0 0 0 0.278431 0 0 0 0 1 0 0 0 1 0"/>
<feBlend mode="normal" in2="BackgroundImageFix" result="effect1_dropShadow_167_135"/>
<feBlend mode="normal" in="SourceGraphic" in2="effect1_dropShadow_167_135" result="shape"/>
</filter>
<linearGradient id="paint0_linear_167_135" x1="422" y1="16" x2="422" y2="80" gradientUnits="userSpaceOnUse">
<stop stop-color="#E2521D"/>
<stop offset="1" stop-color="#E2521D" stop-opacity="0"/>
</linearGradient>
</defs>
</svg>
