<svg width="1160" height="80" viewBox="0 0 1160 80" fill="none" xmlns="http://www.w3.org/2000/svg">
<g filter="url(#filter0_d_386_87)">
<path d="M456 3.2H459.2V0H468.8V19.2H472V22.4H478.4V19.2H481.6V0H491.2V3.2H494.4V22.4H491.2V25.6H488V28.8H484.8V32H481.6V64H468.8V32H465.6V28.8H462.4V25.6H459.2V22.4H456V3.2ZM459.2 6.4H462.4V3.2H459.2V6.4ZM500.812 3.2H504.013V0H536.013V3.2H539.213V60.8H536.013V64H504.013V60.8H500.812V3.2ZM513.613 51.2H526.413V12.8H513.613V51.2ZM504.013 6.4H507.213V3.2H504.013V6.4ZM545.625 3.2H548.825V0H558.425V51.2H571.225V0H580.825V3.2H584.025V60.8H580.825V64H548.825V60.8H545.625V3.2ZM548.825 6.4H552.025V3.2H548.825V6.4Z" fill="url(#paint0_linear_386_87)" shape-rendering="crispEdges"/>
</g>
<mask id="path-2-outside-1_386_87" maskUnits="userSpaceOnUse" x="3" y="27" width="1151" height="30" fill="black">
<rect fill="white" x="3" y="27" width="1151" height="30"/>
<path d="M28.56 28V32H20.56V56H12.56V32H4.56V28H28.56ZM63.685 28V56H55.685V44H43.685V56H35.685V28H43.685V40H55.685V28H63.685ZM94.81 28V32H86.81V52H94.81V56H70.81V52H78.81V32H70.81V28H94.81ZM129.935 44V52H125.935V56H105.935V52H101.935V48H109.935V52H121.935V44H105.935V40H101.935V32H105.935V28H121.935V32H125.935V36H117.935V32H109.935V40H125.935V44H129.935ZM194.185 28V32H186.185V52H194.185V56H170.185V52H178.185V32H170.185V28H194.185ZM229.31 44V52H225.31V56H205.31V52H201.31V48H209.31V52H221.31V44H205.31V40H201.31V32H205.31V28H221.31V32H225.31V36H217.31V32H209.31V40H225.31V44H229.31ZM295.56 28V56H287.56V52H283.56V48H279.56V52H275.56V56H267.56V28H275.56V40H279.56V36H283.56V40H287.56V28H295.56ZM328.685 28V56H320.685V44H308.685V56H300.685V28H308.685V40H320.685V28H328.685ZM361.81 52V56H333.81V28H361.81V32H341.81V40H357.81V44H341.81V52H361.81ZM394.935 52V56H382.935V52H378.935V48H374.935V56H366.935V28H390.935V32H394.935V44H386.935V48H390.935V52H394.935ZM382.935 40H386.935V32H374.935V44H382.935V40ZM428.06 52V56H400.06V28H428.06V32H408.06V40H424.06V44H408.06V52H428.06ZM659.935 48V52H655.935V56H639.935V52H635.935V48H631.935V36H635.935V32H639.935V28H655.935V32H659.935V36H651.935V32H643.935V36H639.935V48H643.935V52H651.935V48H659.935ZM693.06 32V52H689.06V56H669.06V52H665.06V32H669.06V28H689.06V32H693.06ZM673.06 52H685.06V32H673.06V52ZM726.185 28V56H718.185V44H714.185V48H710.185V44H706.185V56H698.185V28H706.185V32H710.185V36H714.185V32H718.185V28H726.185ZM759.31 52V56H731.31V28H759.31V32H739.31V40H755.31V44H739.31V52H759.31ZM823.56 28V32H815.56V52H823.56V56H799.56V52H807.56V32H799.56V28H823.56ZM858.685 28V56H850.685V52H846.685V48H842.685V44H838.685V56H830.685V28H838.685V32H842.685V36H846.685V40H850.685V28H858.685ZM889.81 28V32H881.81V56H873.81V32H865.81V28H889.81ZM924.935 32V52H920.935V56H900.935V52H896.935V32H900.935V28H920.935V32H924.935ZM904.935 52H916.935V32H904.935V52ZM991.185 32V44H987.185V48H971.185V56H963.185V28H987.185V32H991.185ZM971.185 44H983.185V32H971.185V44ZM1024.31 52V56H996.31V28H1004.31V52H1024.31ZM1057.44 36V56H1049.44V48H1037.43V56H1029.44V36H1033.44V32H1037.43V28H1049.44V32H1053.44V36H1057.44ZM1037.43 44H1049.44V36H1045.44V32H1041.44V36H1037.43V44ZM1088.56 28V40H1084.56V44H1080.56V56H1072.56V44H1068.52V40H1064.56V28H1072.56V40H1080.56V28H1088.56ZM1152.81 28V36H1148.81V40H1144.81V44H1140.81V48H1136.81V36H1140.81V28H1152.81ZM1136.81 52V56H1132.81V52H1136.81Z"/>
</mask>
<path d="M28.56 28V32H20.56V56H12.56V32H4.56V28H28.56ZM63.685 28V56H55.685V44H43.685V56H35.685V28H43.685V40H55.685V28H63.685ZM94.81 28V32H86.81V52H94.81V56H70.81V52H78.81V32H70.81V28H94.81ZM129.935 44V52H125.935V56H105.935V52H101.935V48H109.935V52H121.935V44H105.935V40H101.935V32H105.935V28H121.935V32H125.935V36H117.935V32H109.935V40H125.935V44H129.935ZM194.185 28V32H186.185V52H194.185V56H170.185V52H178.185V32H170.185V28H194.185ZM229.31 44V52H225.31V56H205.31V52H201.31V48H209.31V52H221.31V44H205.31V40H201.31V32H205.31V28H221.31V32H225.31V36H217.31V32H209.31V40H225.31V44H229.31ZM295.56 28V56H287.56V52H283.56V48H279.56V52H275.56V56H267.56V28H275.56V40H279.56V36H283.56V40H287.56V28H295.56ZM328.685 28V56H320.685V44H308.685V56H300.685V28H308.685V40H320.685V28H328.685ZM361.81 52V56H333.81V28H361.81V32H341.81V40H357.81V44H341.81V52H361.81ZM394.935 52V56H382.935V52H378.935V48H374.935V56H366.935V28H390.935V32H394.935V44H386.935V48H390.935V52H394.935ZM382.935 40H386.935V32H374.935V44H382.935V40ZM428.06 52V56H400.06V28H428.06V32H408.06V40H424.06V44H408.06V52H428.06ZM659.935 48V52H655.935V56H639.935V52H635.935V48H631.935V36H635.935V32H639.935V28H655.935V32H659.935V36H651.935V32H643.935V36H639.935V48H643.935V52H651.935V48H659.935ZM693.06 32V52H689.06V56H669.06V52H665.06V32H669.06V28H689.06V32H693.06ZM673.06 52H685.06V32H673.06V52ZM726.185 28V56H718.185V44H714.185V48H710.185V44H706.185V56H698.185V28H706.185V32H710.185V36H714.185V32H718.185V28H726.185ZM759.31 52V56H731.31V28H759.31V32H739.31V40H755.31V44H739.31V52H759.31ZM823.56 28V32H815.56V52H823.56V56H799.56V52H807.56V32H799.56V28H823.56ZM858.685 28V56H850.685V52H846.685V48H842.685V44H838.685V56H830.685V28H838.685V32H842.685V36H846.685V40H850.685V28H858.685ZM889.81 28V32H881.81V56H873.81V32H865.81V28H889.81ZM924.935 32V52H920.935V56H900.935V52H896.935V32H900.935V28H920.935V32H924.935ZM904.935 52H916.935V32H904.935V52ZM991.185 32V44H987.185V48H971.185V56H963.185V28H987.185V32H991.185ZM971.185 44H983.185V32H971.185V44ZM1024.31 52V56H996.31V28H1004.31V52H1024.31ZM1057.44 36V56H1049.44V48H1037.43V56H1029.44V36H1033.44V32H1037.43V28H1049.44V32H1053.44V36H1057.44ZM1037.43 44H1049.44V36H1045.44V32H1041.44V36H1037.43V44ZM1088.56 28V40H1084.56V44H1080.56V56H1072.56V44H1068.52V40H1064.56V28H1072.56V40H1080.56V28H1088.56ZM1152.81 28V36H1148.81V40H1144.81V44H1140.81V48H1136.81V36H1140.81V28H1152.81ZM1136.81 52V56H1132.81V52H1136.81Z" fill="url(#paint1_linear_386_87)"/>
<path d="M28.56 28H29.56V27H28.56V28ZM28.56 32V33H29.56V32H28.56ZM20.56 32V31H19.56V32H20.56ZM20.56 56V57H21.56V56H20.56ZM12.56 56H11.56V57H12.56V56ZM12.56 32H13.56V31H12.56V32ZM4.56 32H3.56V33H4.56V32ZM4.56 28V27H3.56V28H4.56ZM27.56 28V32H29.56V28H27.56ZM28.56 31H20.56V33H28.56V31ZM19.56 32V56H21.56V32H19.56ZM20.56 55H12.56V57H20.56V55ZM13.56 56V32H11.56V56H13.56ZM12.56 31H4.56V33H12.56V31ZM5.56 32V28H3.56V32H5.56ZM4.56 29H28.56V27H4.56V29ZM63.685 28H64.685V27H63.685V28ZM63.685 56V57H64.685V56H63.685ZM55.685 56H54.685V57H55.685V56ZM55.685 44H56.685V43H55.685V44ZM43.685 44V43H42.685V44H43.685ZM43.685 56V57H44.685V56H43.685ZM35.685 56H34.685V57H35.685V56ZM35.685 28V27H34.685V28H35.685ZM43.685 28H44.685V27H43.685V28ZM43.685 40H42.685V41H43.685V40ZM55.685 40V41H56.685V40H55.685ZM55.685 28V27H54.685V28H55.685ZM62.685 28V56H64.685V28H62.685ZM63.685 55H55.685V57H63.685V55ZM56.685 56V44H54.685V56H56.685ZM55.685 43H43.685V45H55.685V43ZM42.685 44V56H44.685V44H42.685ZM43.685 55H35.685V57H43.685V55ZM36.685 56V28H34.685V56H36.685ZM35.685 29H43.685V27H35.685V29ZM42.685 28V40H44.685V28H42.685ZM43.685 41H55.685V39H43.685V41ZM56.685 40V28H54.685V40H56.685ZM55.685 29H63.685V27H55.685V29ZM94.81 28H95.81V27H94.81V28ZM94.81 32V33H95.81V32H94.81ZM86.81 32V31H85.81V32H86.81ZM86.81 52H85.81V53H86.81V52ZM94.81 52H95.81V51H94.81V52ZM94.81 56V57H95.81V56H94.81ZM70.81 56H69.81V57H70.81V56ZM70.81 52V51H69.81V52H70.81ZM78.81 52V53H79.81V52H78.81ZM78.81 32H79.81V31H78.81V32ZM70.81 32H69.81V33H70.81V32ZM70.81 28V27H69.81V28H70.81ZM93.81 28V32H95.81V28H93.81ZM94.81 31H86.81V33H94.81V31ZM85.81 32V52H87.81V32H85.81ZM86.81 53H94.81V51H86.81V53ZM93.81 52V56H95.81V52H93.81ZM94.81 55H70.81V57H94.81V55ZM71.81 56V52H69.81V56H71.81ZM70.81 53H78.81V51H70.81V53ZM79.81 52V32H77.81V52H79.81ZM78.81 31H70.81V33H78.81V31ZM71.81 32V28H69.81V32H71.81ZM70.81 29H94.81V27H70.81V29ZM129.935 44H130.935V43H129.935V44ZM129.935 52V53H130.935V52H129.935ZM125.935 52V51H124.935V52H125.935ZM125.935 56V57H126.935V56H125.935ZM105.935 56H104.935V57H105.935V56ZM105.935 52H106.935V51H105.935V52ZM101.935 52H100.935V53H101.935V52ZM101.935 48V47H100.935V48H101.935ZM109.935 48H110.935V47H109.935V48ZM109.935 52H108.935V53H109.935V52ZM121.935 52V53H122.935V52H121.935ZM121.935 44H122.935V43H121.935V44ZM105.935 44H104.935V45H105.935V44ZM105.935 40H106.935V39H105.935V40ZM101.935 40H100.935V41H101.935V40ZM101.935 32V31H100.935V32H101.935ZM105.935 32V33H106.935V32H105.935ZM105.935 28V27H104.935V28H105.935ZM121.935 28H122.935V27H121.935V28ZM121.935 32H120.935V33H121.935V32ZM125.935 32H126.935V31H125.935V32ZM125.935 36V37H126.935V36H125.935ZM117.935 36H116.935V37H117.935V36ZM117.935 32H118.935V31H117.935V32ZM109.935 32V31H108.935V32H109.935ZM109.935 40H108.935V41H109.935V40ZM125.935 40H126.935V39H125.935V40ZM125.935 44H124.935V45H125.935V44ZM128.935 44V52H130.935V44H128.935ZM129.935 51H125.935V53H129.935V51ZM124.935 52V56H126.935V52H124.935ZM125.935 55H105.935V57H125.935V55ZM106.935 56V52H104.935V56H106.935ZM105.935 51H101.935V53H105.935V51ZM102.935 52V48H100.935V52H102.935ZM101.935 49H109.935V47H101.935V49ZM108.935 48V52H110.935V48H108.935ZM109.935 53H121.935V51H109.935V53ZM122.935 52V44H120.935V52H122.935ZM121.935 43H105.935V45H121.935V43ZM106.935 44V40H104.935V44H106.935ZM105.935 39H101.935V41H105.935V39ZM102.935 40V32H100.935V40H102.935ZM101.935 33H105.935V31H101.935V33ZM106.935 32V28H104.935V32H106.935ZM105.935 29H121.935V27H105.935V29ZM120.935 28V32H122.935V28H120.935ZM121.935 33H125.935V31H121.935V33ZM124.935 32V36H126.935V32H124.935ZM125.935 35H117.935V37H125.935V35ZM118.935 36V32H116.935V36H118.935ZM117.935 31H109.935V33H117.935V31ZM108.935 32V40H110.935V32H108.935ZM109.935 41H125.935V39H109.935V41ZM124.935 40V44H126.935V40H124.935ZM125.935 45H129.935V43H125.935V45ZM194.185 28H195.185V27H194.185V28ZM194.185 32V33H195.185V32H194.185ZM186.185 32V31H185.185V32H186.185ZM186.185 52H185.185V53H186.185V52ZM194.185 52H195.185V51H194.185V52ZM194.185 56V57H195.185V56H194.185ZM170.185 56H169.185V57H170.185V56ZM170.185 52V51H169.185V52H170.185ZM178.185 52V53H179.185V52H178.185ZM178.185 32H179.185V31H178.185V32ZM170.185 32H169.185V33H170.185V32ZM170.185 28V27H169.185V28H170.185ZM193.185 28V32H195.185V28H193.185ZM194.185 31H186.185V33H194.185V31ZM185.185 32V52H187.185V32H185.185ZM186.185 53H194.185V51H186.185V53ZM193.185 52V56H195.185V52H193.185ZM194.185 55H170.185V57H194.185V55ZM171.185 56V52H169.185V56H171.185ZM170.185 53H178.185V51H170.185V53ZM179.185 52V32H177.185V52H179.185ZM178.185 31H170.185V33H178.185V31ZM171.185 32V28H169.185V32H171.185ZM170.185 29H194.185V27H170.185V29ZM229.31 44H230.31V43H229.31V44ZM229.31 52V53H230.31V52H229.31ZM225.31 52V51H224.31V52H225.31ZM225.31 56V57H226.31V56H225.31ZM205.31 56H204.31V57H205.31V56ZM205.31 52H206.31V51H205.31V52ZM201.31 52H200.31V53H201.31V52ZM201.31 48V47H200.31V48H201.31ZM209.31 48H210.31V47H209.31V48ZM209.31 52H208.31V53H209.31V52ZM221.31 52V53H222.31V52H221.31ZM221.31 44H222.31V43H221.31V44ZM205.31 44H204.31V45H205.31V44ZM205.31 40H206.31V39H205.31V40ZM201.31 40H200.31V41H201.31V40ZM201.31 32V31H200.31V32H201.31ZM205.31 32V33H206.31V32H205.31ZM205.31 28V27H204.31V28H205.31ZM221.31 28H222.31V27H221.31V28ZM221.31 32H220.31V33H221.31V32ZM225.31 32H226.31V31H225.31V32ZM225.31 36V37H226.31V36H225.31ZM217.31 36H216.31V37H217.31V36ZM217.31 32H218.31V31H217.31V32ZM209.31 32V31H208.31V32H209.31ZM209.31 40H208.31V41H209.31V40ZM225.31 40H226.31V39H225.31V40ZM225.31 44H224.31V45H225.31V44ZM228.31 44V52H230.31V44H228.31ZM229.31 51H225.31V53H229.31V51ZM224.31 52V56H226.31V52H224.31ZM225.31 55H205.31V57H225.31V55ZM206.31 56V52H204.31V56H206.31ZM205.31 51H201.31V53H205.31V51ZM202.31 52V48H200.31V52H202.31ZM201.31 49H209.31V47H201.31V49ZM208.31 48V52H210.31V48H208.31ZM209.31 53H221.31V51H209.31V53ZM222.31 52V44H220.31V52H222.31ZM221.31 43H205.31V45H221.31V43ZM206.31 44V40H204.31V44H206.31ZM205.31 39H201.31V41H205.31V39ZM202.31 40V32H200.31V40H202.31ZM201.31 33H205.31V31H201.31V33ZM206.31 32V28H204.31V32H206.31ZM205.31 29H221.31V27H205.31V29ZM220.31 28V32H222.31V28H220.31ZM221.31 33H225.31V31H221.31V33ZM224.31 32V36H226.31V32H224.31ZM225.31 35H217.31V37H225.31V35ZM218.31 36V32H216.31V36H218.31ZM217.31 31H209.31V33H217.31V31ZM208.31 32V40H210.31V32H208.31ZM209.31 41H225.31V39H209.31V41ZM224.31 40V44H226.31V40H224.31ZM225.31 45H229.31V43H225.31V45ZM295.56 28H296.56V27H295.56V28ZM295.56 56V57H296.56V56H295.56ZM287.56 56H286.56V57H287.56V56ZM287.56 52H288.56V51H287.56V52ZM283.56 52H282.56V53H283.56V52ZM283.56 48H284.56V47H283.56V48ZM279.56 48V47H278.56V48H279.56ZM279.56 52V53H280.56V52H279.56ZM275.56 52V51H274.56V52H275.56ZM275.56 56V57H276.56V56H275.56ZM267.56 56H266.56V57H267.56V56ZM267.56 28V27H266.56V28H267.56ZM275.56 28H276.56V27H275.56V28ZM275.56 40H274.56V41H275.56V40ZM279.56 40V41H280.56V40H279.56ZM279.56 36V35H278.56V36H279.56ZM283.56 36H284.56V35H283.56V36ZM283.56 40H282.56V41H283.56V40ZM287.56 40V41H288.56V40H287.56ZM287.56 28V27H286.56V28H287.56ZM294.56 28V56H296.56V28H294.56ZM295.56 55H287.56V57H295.56V55ZM288.56 56V52H286.56V56H288.56ZM287.56 51H283.56V53H287.56V51ZM284.56 52V48H282.56V52H284.56ZM283.56 47H279.56V49H283.56V47ZM278.56 48V52H280.56V48H278.56ZM279.56 51H275.56V53H279.56V51ZM274.56 52V56H276.56V52H274.56ZM275.56 55H267.56V57H275.56V55ZM268.56 56V28H266.56V56H268.56ZM267.56 29H275.56V27H267.56V29ZM274.56 28V40H276.56V28H274.56ZM275.56 41H279.56V39H275.56V41ZM280.56 40V36H278.56V40H280.56ZM279.56 37H283.56V35H279.56V37ZM282.56 36V40H284.56V36H282.56ZM283.56 41H287.56V39H283.56V41ZM288.56 40V28H286.56V40H288.56ZM287.56 29H295.56V27H287.56V29ZM328.685 28H329.685V27H328.685V28ZM328.685 56V57H329.685V56H328.685ZM320.685 56H319.685V57H320.685V56ZM320.685 44H321.685V43H320.685V44ZM308.685 44V43H307.685V44H308.685ZM308.685 56V57H309.685V56H308.685ZM300.685 56H299.685V57H300.685V56ZM300.685 28V27H299.685V28H300.685ZM308.685 28H309.685V27H308.685V28ZM308.685 40H307.685V41H308.685V40ZM320.685 40V41H321.685V40H320.685ZM320.685 28V27H319.685V28H320.685ZM327.685 28V56H329.685V28H327.685ZM328.685 55H320.685V57H328.685V55ZM321.685 56V44H319.685V56H321.685ZM320.685 43H308.685V45H320.685V43ZM307.685 44V56H309.685V44H307.685ZM308.685 55H300.685V57H308.685V55ZM301.685 56V28H299.685V56H301.685ZM300.685 29H308.685V27H300.685V29ZM307.685 28V40H309.685V28H307.685ZM308.685 41H320.685V39H308.685V41ZM321.685 40V28H319.685V40H321.685ZM320.685 29H328.685V27H320.685V29ZM361.81 52H362.81V51H361.81V52ZM361.81 56V57H362.81V56H361.81ZM333.81 56H332.81V57H333.81V56ZM333.81 28V27H332.81V28H333.81ZM361.81 28H362.81V27H361.81V28ZM361.81 32V33H362.81V32H361.81ZM341.81 32V31H340.81V32H341.81ZM341.81 40H340.81V41H341.81V40ZM357.81 40H358.81V39H357.81V40ZM357.81 44V45H358.81V44H357.81ZM341.81 44V43H340.81V44H341.81ZM341.81 52H340.81V53H341.81V52ZM360.81 52V56H362.81V52H360.81ZM361.81 55H333.81V57H361.81V55ZM334.81 56V28H332.81V56H334.81ZM333.81 29H361.81V27H333.81V29ZM360.81 28V32H362.81V28H360.81ZM361.81 31H341.81V33H361.81V31ZM340.81 32V40H342.81V32H340.81ZM341.81 41H357.81V39H341.81V41ZM356.81 40V44H358.81V40H356.81ZM357.81 43H341.81V45H357.81V43ZM340.81 44V52H342.81V44H340.81ZM341.81 53H361.81V51H341.81V53ZM394.935 52H395.935V51H394.935V52ZM394.935 56V57H395.935V56H394.935ZM382.935 56H381.935V57H382.935V56ZM382.935 52H383.935V51H382.935V52ZM378.935 52H377.935V53H378.935V52ZM378.935 48H379.935V47H378.935V48ZM374.935 48V47H373.935V48H374.935ZM374.935 56V57H375.935V56H374.935ZM366.935 56H365.935V57H366.935V56ZM366.935 28V27H365.935V28H366.935ZM390.935 28H391.935V27H390.935V28ZM390.935 32H389.935V33H390.935V32ZM394.935 32H395.935V31H394.935V32ZM394.935 44V45H395.935V44H394.935ZM386.935 44V43H385.935V44H386.935ZM386.935 48H385.935V49H386.935V48ZM390.935 48H391.935V47H390.935V48ZM390.935 52H389.935V53H390.935V52ZM382.935 40V39H381.935V40H382.935ZM386.935 40V41H387.935V40H386.935ZM386.935 32H387.935V31H386.935V32ZM374.935 32V31H373.935V32H374.935ZM374.935 44H373.935V45H374.935V44ZM382.935 44V45H383.935V44H382.935ZM393.935 52V56H395.935V52H393.935ZM394.935 55H382.935V57H394.935V55ZM383.935 56V52H381.935V56H383.935ZM382.935 51H378.935V53H382.935V51ZM379.935 52V48H377.935V52H379.935ZM378.935 47H374.935V49H378.935V47ZM373.935 48V56H375.935V48H373.935ZM374.935 55H366.935V57H374.935V55ZM367.935 56V28H365.935V56H367.935ZM366.935 29H390.935V27H366.935V29ZM389.935 28V32H391.935V28H389.935ZM390.935 33H394.935V31H390.935V33ZM393.935 32V44H395.935V32H393.935ZM394.935 43H386.935V45H394.935V43ZM385.935 44V48H387.935V44H385.935ZM386.935 49H390.935V47H386.935V49ZM389.935 48V52H391.935V48H389.935ZM390.935 53H394.935V51H390.935V53ZM382.935 41H386.935V39H382.935V41ZM387.935 40V32H385.935V40H387.935ZM386.935 31H374.935V33H386.935V31ZM373.935 32V44H375.935V32H373.935ZM374.935 45H382.935V43H374.935V45ZM383.935 44V40H381.935V44H383.935ZM428.06 52H429.06V51H428.06V52ZM428.06 56V57H429.06V56H428.06ZM400.06 56H399.06V57H400.06V56ZM400.06 28V27H399.06V28H400.06ZM428.06 28H429.06V27H428.06V28ZM428.06 32V33H429.06V32H428.06ZM408.06 32V31H407.06V32H408.06ZM408.06 40H407.06V41H408.06V40ZM424.06 40H425.06V39H424.06V40ZM424.06 44V45H425.06V44H424.06ZM408.06 44V43H407.06V44H408.06ZM408.06 52H407.06V53H408.06V52ZM427.06 52V56H429.06V52H427.06ZM428.06 55H400.06V57H428.06V55ZM401.06 56V28H399.06V56H401.06ZM400.06 29H428.06V27H400.06V29ZM427.06 28V32H429.06V28H427.06ZM428.06 31H408.06V33H428.06V31ZM407.06 32V40H409.06V32H407.06ZM408.06 41H424.06V39H408.06V41ZM423.06 40V44H425.06V40H423.06ZM424.06 43H408.06V45H424.06V43ZM407.06 44V52H409.06V44H407.06ZM408.06 53H428.06V51H408.06V53ZM659.935 48H660.935V47H659.935V48ZM659.935 52V53H660.935V52H659.935ZM655.935 52V51H654.935V52H655.935ZM655.935 56V57H656.935V56H655.935ZM639.935 56H638.935V57H639.935V56ZM639.935 52H640.935V51H639.935V52ZM635.935 52H634.935V53H635.935V52ZM635.935 48H636.935V47H635.935V48ZM631.935 48H630.935V49H631.935V48ZM631.935 36V35H630.935V36H631.935ZM635.935 36V37H636.935V36H635.935ZM635.935 32V31H634.935V32H635.935ZM639.935 32V33H640.935V32H639.935ZM639.935 28V27H638.935V28H639.935ZM655.935 28H656.935V27H655.935V28ZM655.935 32H654.935V33H655.935V32ZM659.935 32H660.935V31H659.935V32ZM659.935 36V37H660.935V36H659.935ZM651.935 36H650.935V37H651.935V36ZM651.935 32H652.935V31H651.935V32ZM643.935 32V31H642.935V32H643.935ZM643.935 36V37H644.935V36H643.935ZM639.935 36V35H638.935V36H639.935ZM639.935 48H638.935V49H639.935V48ZM643.935 48H644.935V47H643.935V48ZM643.935 52H642.935V53H643.935V52ZM651.935 52V53H652.935V52H651.935ZM651.935 48V47H650.935V48H651.935ZM658.935 48V52H660.935V48H658.935ZM659.935 51H655.935V53H659.935V51ZM654.935 52V56H656.935V52H654.935ZM655.935 55H639.935V57H655.935V55ZM640.935 56V52H638.935V56H640.935ZM639.935 51H635.935V53H639.935V51ZM636.935 52V48H634.935V52H636.935ZM635.935 47H631.935V49H635.935V47ZM632.935 48V36H630.935V48H632.935ZM631.935 37H635.935V35H631.935V37ZM636.935 36V32H634.935V36H636.935ZM635.935 33H639.935V31H635.935V33ZM640.935 32V28H638.935V32H640.935ZM639.935 29H655.935V27H639.935V29ZM654.935 28V32H656.935V28H654.935ZM655.935 33H659.935V31H655.935V33ZM658.935 32V36H660.935V32H658.935ZM659.935 35H651.935V37H659.935V35ZM652.935 36V32H650.935V36H652.935ZM651.935 31H643.935V33H651.935V31ZM642.935 32V36H644.935V32H642.935ZM643.935 35H639.935V37H643.935V35ZM638.935 36V48H640.935V36H638.935ZM639.935 49H643.935V47H639.935V49ZM642.935 48V52H644.935V48H642.935ZM643.935 53H651.935V51H643.935V53ZM652.935 52V48H650.935V52H652.935ZM651.935 49H659.935V47H651.935V49ZM693.06 32H694.06V31H693.06V32ZM693.06 52V53H694.06V52H693.06ZM689.06 52V51H688.06V52H689.06ZM689.06 56V57H690.06V56H689.06ZM669.06 56H668.06V57H669.06V56ZM669.06 52H670.06V51H669.06V52ZM665.06 52H664.06V53H665.06V52ZM665.06 32V31H664.06V32H665.06ZM669.06 32V33H670.06V32H669.06ZM669.06 28V27H668.06V28H669.06ZM689.06 28H690.06V27H689.06V28ZM689.06 32H688.06V33H689.06V32ZM673.06 52H672.06V53H673.06V52ZM685.06 52V53H686.06V52H685.06ZM685.06 32H686.06V31H685.06V32ZM673.06 32V31H672.06V32H673.06ZM692.06 32V52H694.06V32H692.06ZM693.06 51H689.06V53H693.06V51ZM688.06 52V56H690.06V52H688.06ZM689.06 55H669.06V57H689.06V55ZM670.06 56V52H668.06V56H670.06ZM669.06 51H665.06V53H669.06V51ZM666.06 52V32H664.06V52H666.06ZM665.06 33H669.06V31H665.06V33ZM670.06 32V28H668.06V32H670.06ZM669.06 29H689.06V27H669.06V29ZM688.06 28V32H690.06V28H688.06ZM689.06 33H693.06V31H689.06V33ZM673.06 53H685.06V51H673.06V53ZM686.06 52V32H684.06V52H686.06ZM685.06 31H673.06V33H685.06V31ZM672.06 32V52H674.06V32H672.06ZM726.185 28H727.185V27H726.185V28ZM726.185 56V57H727.185V56H726.185ZM718.185 56H717.185V57H718.185V56ZM718.185 44H719.185V43H718.185V44ZM714.185 44V43H713.185V44H714.185ZM714.185 48V49H715.185V48H714.185ZM710.185 48H709.185V49H710.185V48ZM710.185 44H711.185V43H710.185V44ZM706.185 44V43H705.185V44H706.185ZM706.185 56V57H707.185V56H706.185ZM698.185 56H697.185V57H698.185V56ZM698.185 28V27H697.185V28H698.185ZM706.185 28H707.185V27H706.185V28ZM706.185 32H705.185V33H706.185V32ZM710.185 32H711.185V31H710.185V32ZM710.185 36H709.185V37H710.185V36ZM714.185 36V37H715.185V36H714.185ZM714.185 32V31H713.185V32H714.185ZM718.185 32V33H719.185V32H718.185ZM718.185 28V27H717.185V28H718.185ZM725.185 28V56H727.185V28H725.185ZM726.185 55H718.185V57H726.185V55ZM719.185 56V44H717.185V56H719.185ZM718.185 43H714.185V45H718.185V43ZM713.185 44V48H715.185V44H713.185ZM714.185 47H710.185V49H714.185V47ZM711.185 48V44H709.185V48H711.185ZM710.185 43H706.185V45H710.185V43ZM705.185 44V56H707.185V44H705.185ZM706.185 55H698.185V57H706.185V55ZM699.185 56V28H697.185V56H699.185ZM698.185 29H706.185V27H698.185V29ZM705.185 28V32H707.185V28H705.185ZM706.185 33H710.185V31H706.185V33ZM709.185 32V36H711.185V32H709.185ZM710.185 37H714.185V35H710.185V37ZM715.185 36V32H713.185V36H715.185ZM714.185 33H718.185V31H714.185V33ZM719.185 32V28H717.185V32H719.185ZM718.185 29H726.185V27H718.185V29ZM759.31 52H760.31V51H759.31V52ZM759.31 56V57H760.31V56H759.31ZM731.31 56H730.31V57H731.31V56ZM731.31 28V27H730.31V28H731.31ZM759.31 28H760.31V27H759.31V28ZM759.31 32V33H760.31V32H759.31ZM739.31 32V31H738.31V32H739.31ZM739.31 40H738.31V41H739.31V40ZM755.31 40H756.31V39H755.31V40ZM755.31 44V45H756.31V44H755.31ZM739.31 44V43H738.31V44H739.31ZM739.31 52H738.31V53H739.31V52ZM758.31 52V56H760.31V52H758.31ZM759.31 55H731.31V57H759.31V55ZM732.31 56V28H730.31V56H732.31ZM731.31 29H759.31V27H731.31V29ZM758.31 28V32H760.31V28H758.31ZM759.31 31H739.31V33H759.31V31ZM738.31 32V40H740.31V32H738.31ZM739.31 41H755.31V39H739.31V41ZM754.31 40V44H756.31V40H754.31ZM755.31 43H739.31V45H755.31V43ZM738.31 44V52H740.31V44H738.31ZM739.31 53H759.31V51H739.31V53ZM823.56 28H824.56V27H823.56V28ZM823.56 32V33H824.56V32H823.56ZM815.56 32V31H814.56V32H815.56ZM815.56 52H814.56V53H815.56V52ZM823.56 52H824.56V51H823.56V52ZM823.56 56V57H824.56V56H823.56ZM799.56 56H798.56V57H799.56V56ZM799.56 52V51H798.56V52H799.56ZM807.56 52V53H808.56V52H807.56ZM807.56 32H808.56V31H807.56V32ZM799.56 32H798.56V33H799.56V32ZM799.56 28V27H798.56V28H799.56ZM822.56 28V32H824.56V28H822.56ZM823.56 31H815.56V33H823.56V31ZM814.56 32V52H816.56V32H814.56ZM815.56 53H823.56V51H815.56V53ZM822.56 52V56H824.56V52H822.56ZM823.56 55H799.56V57H823.56V55ZM800.56 56V52H798.56V56H800.56ZM799.56 53H807.56V51H799.56V53ZM808.56 52V32H806.56V52H808.56ZM807.56 31H799.56V33H807.56V31ZM800.56 32V28H798.56V32H800.56ZM799.56 29H823.56V27H799.56V29ZM858.685 28H859.685V27H858.685V28ZM858.685 56V57H859.685V56H858.685ZM850.685 56H849.685V57H850.685V56ZM850.685 52H851.685V51H850.685V52ZM846.685 52H845.685V53H846.685V52ZM846.685 48H847.685V47H846.685V48ZM842.685 48H841.685V49H842.685V48ZM842.685 44H843.685V43H842.685V44ZM838.685 44V43H837.685V44H838.685ZM838.685 56V57H839.685V56H838.685ZM830.685 56H829.685V57H830.685V56ZM830.685 28V27H829.685V28H830.685ZM838.685 28H839.685V27H838.685V28ZM838.685 32H837.685V33H838.685V32ZM842.685 32H843.685V31H842.685V32ZM842.685 36H841.685V37H842.685V36ZM846.685 36H847.685V35H846.685V36ZM846.685 40H845.685V41H846.685V40ZM850.685 40V41H851.685V40H850.685ZM850.685 28V27H849.685V28H850.685ZM857.685 28V56H859.685V28H857.685ZM858.685 55H850.685V57H858.685V55ZM851.685 56V52H849.685V56H851.685ZM850.685 51H846.685V53H850.685V51ZM847.685 52V48H845.685V52H847.685ZM846.685 47H842.685V49H846.685V47ZM843.685 48V44H841.685V48H843.685ZM842.685 43H838.685V45H842.685V43ZM837.685 44V56H839.685V44H837.685ZM838.685 55H830.685V57H838.685V55ZM831.685 56V28H829.685V56H831.685ZM830.685 29H838.685V27H830.685V29ZM837.685 28V32H839.685V28H837.685ZM838.685 33H842.685V31H838.685V33ZM841.685 32V36H843.685V32H841.685ZM842.685 37H846.685V35H842.685V37ZM845.685 36V40H847.685V36H845.685ZM846.685 41H850.685V39H846.685V41ZM851.685 40V28H849.685V40H851.685ZM850.685 29H858.685V27H850.685V29ZM889.81 28H890.81V27H889.81V28ZM889.81 32V33H890.81V32H889.81ZM881.81 32V31H880.81V32H881.81ZM881.81 56V57H882.81V56H881.81ZM873.81 56H872.81V57H873.81V56ZM873.81 32H874.81V31H873.81V32ZM865.81 32H864.81V33H865.81V32ZM865.81 28V27H864.81V28H865.81ZM888.81 28V32H890.81V28H888.81ZM889.81 31H881.81V33H889.81V31ZM880.81 32V56H882.81V32H880.81ZM881.81 55H873.81V57H881.81V55ZM874.81 56V32H872.81V56H874.81ZM873.81 31H865.81V33H873.81V31ZM866.81 32V28H864.81V32H866.81ZM865.81 29H889.81V27H865.81V29ZM924.935 32H925.935V31H924.935V32ZM924.935 52V53H925.935V52H924.935ZM920.935 52V51H919.935V52H920.935ZM920.935 56V57H921.935V56H920.935ZM900.935 56H899.935V57H900.935V56ZM900.935 52H901.935V51H900.935V52ZM896.935 52H895.935V53H896.935V52ZM896.935 32V31H895.935V32H896.935ZM900.935 32V33H901.935V32H900.935ZM900.935 28V27H899.935V28H900.935ZM920.935 28H921.935V27H920.935V28ZM920.935 32H919.935V33H920.935V32ZM904.935 52H903.935V53H904.935V52ZM916.935 52V53H917.935V52H916.935ZM916.935 32H917.935V31H916.935V32ZM904.935 32V31H903.935V32H904.935ZM923.935 32V52H925.935V32H923.935ZM924.935 51H920.935V53H924.935V51ZM919.935 52V56H921.935V52H919.935ZM920.935 55H900.935V57H920.935V55ZM901.935 56V52H899.935V56H901.935ZM900.935 51H896.935V53H900.935V51ZM897.935 52V32H895.935V52H897.935ZM896.935 33H900.935V31H896.935V33ZM901.935 32V28H899.935V32H901.935ZM900.935 29H920.935V27H900.935V29ZM919.935 28V32H921.935V28H919.935ZM920.935 33H924.935V31H920.935V33ZM904.935 53H916.935V51H904.935V53ZM917.935 52V32H915.935V52H917.935ZM916.935 31H904.935V33H916.935V31ZM903.935 32V52H905.935V32H903.935ZM991.185 32H992.185V31H991.185V32ZM991.185 44V45H992.185V44H991.185ZM987.185 44V43H986.185V44H987.185ZM987.185 48V49H988.185V48H987.185ZM971.185 48V47H970.185V48H971.185ZM971.185 56V57H972.185V56H971.185ZM963.185 56H962.185V57H963.185V56ZM963.185 28V27H962.185V28H963.185ZM987.185 28H988.185V27H987.185V28ZM987.185 32H986.185V33H987.185V32ZM971.185 44H970.185V45H971.185V44ZM983.185 44V45H984.185V44H983.185ZM983.185 32H984.185V31H983.185V32ZM971.185 32V31H970.185V32H971.185ZM990.185 32V44H992.185V32H990.185ZM991.185 43H987.185V45H991.185V43ZM986.185 44V48H988.185V44H986.185ZM987.185 47H971.185V49H987.185V47ZM970.185 48V56H972.185V48H970.185ZM971.185 55H963.185V57H971.185V55ZM964.185 56V28H962.185V56H964.185ZM963.185 29H987.185V27H963.185V29ZM986.185 28V32H988.185V28H986.185ZM987.185 33H991.185V31H987.185V33ZM971.185 45H983.185V43H971.185V45ZM984.185 44V32H982.185V44H984.185ZM983.185 31H971.185V33H983.185V31ZM970.185 32V44H972.185V32H970.185ZM1024.31 52H1025.31V51H1024.31V52ZM1024.31 56V57H1025.31V56H1024.31ZM996.31 56H995.31V57H996.31V56ZM996.31 28V27H995.31V28H996.31ZM1004.31 28H1005.31V27H1004.31V28ZM1004.31 52H1003.31V53H1004.31V52ZM1023.31 52V56H1025.31V52H1023.31ZM1024.31 55H996.31V57H1024.31V55ZM997.31 56V28H995.31V56H997.31ZM996.31 29H1004.31V27H996.31V29ZM1003.31 28V52H1005.31V28H1003.31ZM1004.31 53H1024.31V51H1004.31V53ZM1057.44 36H1058.44V35H1057.44V36ZM1057.44 56V57H1058.44V56H1057.44ZM1049.44 56H1048.44V57H1049.44V56ZM1049.44 48H1050.44V47H1049.44V48ZM1037.43 48V47H1036.43V48H1037.43ZM1037.43 56V57H1038.43V56H1037.43ZM1029.44 56H1028.44V57H1029.44V56ZM1029.44 36V35H1028.44V36H1029.44ZM1033.44 36V37H1034.44V36H1033.44ZM1033.44 32V31H1032.44V32H1033.44ZM1037.43 32V33H1038.43V32H1037.43ZM1037.43 28V27H1036.43V28H1037.43ZM1049.44 28H1050.44V27H1049.44V28ZM1049.44 32H1048.44V33H1049.44V32ZM1053.44 32H1054.44V31H1053.44V32ZM1053.44 36H1052.44V37H1053.44V36ZM1037.43 44H1036.43V45H1037.43V44ZM1049.44 44V45H1050.44V44H1049.44ZM1049.44 36H1050.44V35H1049.44V36ZM1045.44 36H1044.44V37H1045.44V36ZM1045.44 32H1046.44V31H1045.44V32ZM1041.44 32V31H1040.44V32H1041.44ZM1041.44 36V37H1042.44V36H1041.44ZM1037.43 36V35H1036.43V36H1037.43ZM1056.44 36V56H1058.44V36H1056.44ZM1057.44 55H1049.44V57H1057.44V55ZM1050.44 56V48H1048.44V56H1050.44ZM1049.44 47H1037.43V49H1049.44V47ZM1036.43 48V56H1038.43V48H1036.43ZM1037.43 55H1029.44V57H1037.43V55ZM1030.44 56V36H1028.44V56H1030.44ZM1029.44 37H1033.44V35H1029.44V37ZM1034.44 36V32H1032.44V36H1034.44ZM1033.44 33H1037.43V31H1033.44V33ZM1038.43 32V28H1036.43V32H1038.43ZM1037.43 29H1049.44V27H1037.43V29ZM1048.44 28V32H1050.44V28H1048.44ZM1049.44 33H1053.44V31H1049.44V33ZM1052.44 32V36H1054.44V32H1052.44ZM1053.44 37H1057.44V35H1053.44V37ZM1037.43 45H1049.44V43H1037.43V45ZM1050.44 44V36H1048.44V44H1050.44ZM1049.44 35H1045.44V37H1049.44V35ZM1046.44 36V32H1044.44V36H1046.44ZM1045.44 31H1041.44V33H1045.44V31ZM1040.44 32V36H1042.44V32H1040.44ZM1041.44 35H1037.43V37H1041.44V35ZM1036.43 36V44H1038.43V36H1036.43ZM1088.56 28H1089.56V27H1088.56V28ZM1088.56 40V41H1089.56V40H1088.56ZM1084.56 40V39H1083.56V40H1084.56ZM1084.56 44V45H1085.56V44H1084.56ZM1080.56 44V43H1079.56V44H1080.56ZM1080.56 56V57H1081.56V56H1080.56ZM1072.56 56H1071.56V57H1072.56V56ZM1072.56 44H1073.56V43H1072.56V44ZM1068.52 44H1067.52V45H1068.52V44ZM1068.52 40H1069.52V39H1068.52V40ZM1064.56 40H1063.56V41H1064.56V40ZM1064.56 28V27H1063.56V28H1064.56ZM1072.56 28H1073.56V27H1072.56V28ZM1072.56 40H1071.56V41H1072.56V40ZM1080.56 40V41H1081.56V40H1080.56ZM1080.56 28V27H1079.56V28H1080.56ZM1087.56 28V40H1089.56V28H1087.56ZM1088.56 39H1084.56V41H1088.56V39ZM1083.56 40V44H1085.56V40H1083.56ZM1084.56 43H1080.56V45H1084.56V43ZM1079.56 44V56H1081.56V44H1079.56ZM1080.56 55H1072.56V57H1080.56V55ZM1073.56 56V44H1071.56V56H1073.56ZM1072.56 43H1068.52V45H1072.56V43ZM1069.52 44V40H1067.52V44H1069.52ZM1068.52 39H1064.56V41H1068.52V39ZM1065.56 40V28H1063.56V40H1065.56ZM1064.56 29H1072.56V27H1064.56V29ZM1071.56 28V40H1073.56V28H1071.56ZM1072.56 41H1080.56V39H1072.56V41ZM1081.56 40V28H1079.56V40H1081.56ZM1080.56 29H1088.56V27H1080.56V29ZM1152.81 28H1153.81V27H1152.81V28ZM1152.81 36V37H1153.81V36H1152.81ZM1148.81 36V35H1147.81V36H1148.81ZM1148.81 40V41H1149.81V40H1148.81ZM1144.81 40V39H1143.81V40H1144.81ZM1144.81 44V45H1145.81V44H1144.81ZM1140.81 44V43H1139.81V44H1140.81ZM1140.81 48V49H1141.81V48H1140.81ZM1136.81 48H1135.81V49H1136.81V48ZM1136.81 36V35H1135.81V36H1136.81ZM1140.81 36V37H1141.81V36H1140.81ZM1140.81 28V27H1139.81V28H1140.81ZM1136.81 52H1137.81V51H1136.81V52ZM1136.81 56V57H1137.81V56H1136.81ZM1132.81 56H1131.81V57H1132.81V56ZM1132.81 52V51H1131.81V52H1132.81ZM1151.81 28V36H1153.81V28H1151.81ZM1152.81 35H1148.81V37H1152.81V35ZM1147.81 36V40H1149.81V36H1147.81ZM1148.81 39H1144.81V41H1148.81V39ZM1143.81 40V44H1145.81V40H1143.81ZM1144.81 43H1140.81V45H1144.81V43ZM1139.81 44V48H1141.81V44H1139.81ZM1140.81 47H1136.81V49H1140.81V47ZM1137.81 48V36H1135.81V48H1137.81ZM1136.81 37H1140.81V35H1136.81V37ZM1141.81 36V28H1139.81V36H1141.81ZM1140.81 29H1152.81V27H1140.81V29ZM1135.81 52V56H1137.81V52H1135.81ZM1136.81 55H1132.81V57H1136.81V55ZM1133.81 56V52H1131.81V56H1133.81ZM1132.81 53H1136.81V51H1132.81V53Z" fill="#632E69" mask="url(#path-2-outside-1_386_87)"/>
<defs>
<filter id="filter0_d_386_87" x="452" y="0" width="136.025" height="72" filterUnits="userSpaceOnUse" color-interpolation-filters="sRGB">
<feFlood flood-opacity="0" result="BackgroundImageFix"/>
<feColorMatrix in="SourceAlpha" type="matrix" values="0 0 0 0 0 0 0 0 0 0 0 0 0 0 0 0 0 0 127 0" result="hardAlpha"/>
<feOffset dy="4"/>
<feGaussianBlur stdDeviation="2"/>
<feComposite in2="hardAlpha" operator="out"/>
<feColorMatrix type="matrix" values="0 0 0 0 0.592157 0 0 0 0 0.278431 0 0 0 0 1 0 0 0 1 0"/>
<feBlend mode="normal" in2="BackgroundImageFix" result="effect1_dropShadow_386_87"/>
<feBlend mode="normal" in="SourceGraphic" in2="effect1_dropShadow_386_87" result="shape"/>
</filter>
<linearGradient id="paint0_linear_386_87" x1="525.5" y1="16" x2="525.5" y2="80" gradientUnits="userSpaceOnUse">
<stop stop-color="#E2521D"/>
<stop offset="1" stop-color="#E2521D" stop-opacity="0"/>
</linearGradient>
<linearGradient id="paint1_linear_386_87" x1="580" y1="16" x2="580" y2="64" gradientUnits="userSpaceOnUse">
<stop offset="0.192708" stop-color="#E2521D" stop-opacity="0.8"/>
<stop offset="0.505208" stop-color="#A3A3A3" stop-opacity="0.5"/>
<stop offset="0.859375" stop-color="#E2521D" stop-opacity="0.8"/>
</linearGradient>
</defs>
</svg>
