<svg width="232" height="232" viewBox="0 0 232 232" fill="none" xmlns="http://www.w3.org/2000/svg">
<g opacity="0.5" filter="url(#filter0_d_244_135)">
<path d="M180.96 34.8002C182.241 34.8002 183.28 33.7615 183.28 32.4802C183.28 31.1989 182.241 30.1602 180.96 30.1602C179.679 30.1602 178.64 31.1989 178.64 32.4802C178.64 33.7615 179.679 34.8002 180.96 34.8002Z" fill="#F1BC19"/>
<path d="M116 204.16C164.689 204.16 204.16 164.69 204.16 116C204.16 67.3107 164.689 27.8401 116 27.8401C67.3105 27.8401 27.84 67.3107 27.84 116C27.84 164.69 67.3105 204.16 116 204.16Z" fill="#421246"/>
<path d="M194.88 46.4001C200.005 46.4001 204.16 42.2453 204.16 37.1201C204.16 31.9949 200.005 27.8401 194.88 27.8401C189.755 27.8401 185.6 31.9949 185.6 37.1201C185.6 42.2453 189.755 46.4001 194.88 46.4001Z" fill="#F1BC19"/>
<path d="M32.48 64.9602C35.0426 64.9602 37.12 62.8828 37.12 60.3202C37.12 57.7576 35.0426 55.6802 32.48 55.6802C29.9174 55.6802 27.84 57.7576 27.84 60.3202C27.84 62.8828 29.9174 64.9602 32.48 64.9602Z" fill="#EE3E54"/>
<path d="M180.96 183.28C183.523 183.28 185.6 181.203 185.6 178.64C185.6 176.077 183.523 174 180.96 174C178.397 174 176.32 176.077 176.32 178.64C176.32 181.203 178.397 183.28 180.96 183.28Z" fill="#FFD365"/>
<path d="M39.4399 190.24C44.5651 190.24 48.7199 186.085 48.7199 180.96C48.7199 175.835 44.5651 171.68 39.4399 171.68C34.3147 171.68 30.1599 175.835 30.1599 180.96C30.1599 186.085 34.3147 190.24 39.4399 190.24Z" fill="#FFD365"/>
<path d="M55.6799 197.2C58.2425 197.2 60.3199 195.123 60.3199 192.56C60.3199 189.998 58.2425 187.92 55.6799 187.92C53.1173 187.92 51.0399 189.998 51.0399 192.56C51.0399 195.123 53.1173 197.2 55.6799 197.2Z" fill="#EE3E54"/>
<path d="M154.241 187.92C157.422 187.92 160.001 185.341 160.001 182.159C160.001 178.978 157.422 176.399 154.241 176.399C151.059 176.399 148.48 178.978 148.48 182.159C148.48 185.341 151.059 187.92 154.241 187.92Z" fill="white"/>
<path d="M37.1199 113.68C38.4012 113.68 39.4399 112.641 39.4399 111.36C39.4399 110.079 38.4012 109.04 37.1199 109.04C35.8386 109.04 34.7999 110.079 34.7999 111.36C34.7999 112.641 35.8386 113.68 37.1199 113.68Z" fill="white"/>
<path d="M199.52 74.2401C200.801 74.2401 201.84 73.2014 201.84 71.9201C201.84 70.6388 200.801 69.6001 199.52 69.6001C198.239 69.6001 197.2 70.6388 197.2 71.9201C197.2 73.2014 198.239 74.2401 199.52 74.2401Z" fill="#F1BC19"/>
<path d="M178.64 167.04C181.203 167.04 183.28 164.963 183.28 162.4C183.28 159.837 181.203 157.76 178.64 157.76C176.077 157.76 174 159.837 174 162.4C174 164.963 176.077 167.04 178.64 167.04Z" fill="white"/>
<path d="M99.6718 117.213C100.15 108.674 104.333 101.15 110.641 95.8161C116.828 90.5776 125.155 87.376 134.242 87.376C143.32 87.376 151.647 90.5776 157.839 95.8161C164.142 101.15 168.325 108.674 168.808 117.204C169.286 125.978 165.759 134.131 159.572 140.172C153.264 146.318 144.29 150.176 134.242 150.176C124.194 150.176 115.202 146.32 108.898 140.172C102.706 134.129 99.1892 125.978 99.6718 117.213Z" fill="#FDFCEF"/>
<path d="M118.786 118.088C119 114.276 120.867 110.917 123.684 108.537C126.445 106.198 130.164 104.769 134.219 104.769C138.27 104.769 141.989 106.198 144.752 108.537C147.566 110.917 149.433 114.276 149.649 118.084C149.863 122 148.29 125.64 145.527 128.336C142.71 131.08 138.706 132.802 134.219 132.802C129.734 132.802 125.721 131.08 122.907 128.336C120.139 125.64 118.571 122.002 118.786 118.088Z" fill="#355CA8"/>
<path d="M134.217 133.961C129.57 133.961 125.266 132.259 122.095 129.166C118.984 126.131 117.399 122.176 117.626 118.023C117.851 114.037 119.735 110.355 122.932 107.65C126.011 105.045 130.017 103.609 134.214 103.609C138.411 103.609 142.418 105.045 145.496 107.65C148.691 110.353 150.575 114.033 150.802 118.018C151.03 122.171 149.44 126.129 146.332 129.166C143.16 132.259 138.857 133.961 134.217 133.961ZM119.942 118.153C119.751 121.626 121.09 124.946 123.714 127.505C126.449 130.171 130.178 131.641 134.214 131.641C138.246 131.641 141.975 130.173 144.712 127.505C147.334 124.944 148.675 121.619 148.487 118.146C148.297 114.808 146.701 111.708 143.995 109.42C141.337 107.168 137.861 105.929 134.212 105.929C130.563 105.929 127.09 107.17 124.429 109.42C121.726 111.71 120.132 114.812 119.942 118.153Z" fill="#472B29"/>
<path d="M88.2319 126.86C88.2621 128.575 88.8096 131.906 89.6286 134.509C91.3523 140.017 94.2779 145.112 98.3471 149.603C102.523 154.22 107.664 157.927 113.603 160.558C119.847 163.324 126.609 164.732 133.637 164.72C140.65 164.711 147.415 163.275 153.658 160.489C159.597 157.83 164.734 154.106 168.903 149.489C172.97 144.979 175.888 139.875 177.619 134.368C178.489 131.584 179.037 128.76 179.257 125.925C179.473 123.132 179.382 120.336 178.986 117.541C178.211 112.096 176.327 106.985 173.427 102.328C170.773 98.048 167.353 94.3012 163.286 91.1483L163.296 91.1414L122.255 59.6288C122.218 59.601 122.187 59.5708 122.148 59.5453C119.454 57.4782 114.928 57.4852 111.966 59.5569C108.973 61.6519 108.629 65.1156 111.293 67.3011L111.281 67.3127L128.398 81.2327L76.2259 81.2883H76.1563C71.8435 81.293 67.6976 84.1234 66.8787 87.6985C66.0342 91.3409 68.9643 94.3639 73.4489 94.3801L73.4419 94.3964L99.8853 94.3453L52.6965 130.565C52.6362 130.609 52.5712 130.656 52.5155 130.7C48.0635 134.108 46.6251 139.776 49.4299 143.362C52.2766 147.009 58.3248 147.016 62.8233 143.383L88.5776 122.306C88.5776 122.306 88.2018 125.15 88.2319 126.86ZM153.786 135.883C148.638 141.126 141.432 144.1 133.637 144.116C125.828 144.13 118.622 141.184 113.476 135.948C110.961 133.396 109.114 130.461 107.973 127.336C106.857 124.264 106.423 121.002 106.711 117.712C106.982 114.497 107.94 111.427 109.469 108.653C110.97 105.924 113.037 103.458 115.592 101.373C120.596 97.2963 126.964 95.0877 133.627 95.0784C140.295 95.0691 146.661 97.2569 151.67 101.319C154.22 103.396 156.284 105.853 157.786 108.576C159.321 111.351 160.27 114.406 160.556 117.631C160.839 120.916 160.405 124.174 159.289 127.248C158.14 130.387 156.301 133.321 153.786 135.883Z" fill="#F47C22"/>
<path d="M133.549 166.344C126.322 166.344 119.39 164.896 112.945 162.043C106.81 159.326 101.495 155.507 97.1407 150.691C92.9346 146.049 89.8861 140.766 88.0765 134.992C87.1624 132.092 86.6358 128.651 86.6056 126.888C86.601 126.614 86.6056 126.315 86.6149 126.006L63.8487 144.638C61.0114 146.93 57.5291 148.03 54.2625 147.654C51.7499 147.364 49.5784 146.195 48.147 144.36C46.7387 142.559 46.1355 140.223 46.4464 137.783C46.8501 134.625 48.7015 131.572 51.5249 129.41C51.5388 129.4 51.7314 129.257 51.7476 129.245L95.0899 95.9785L73.4443 96.0202C73.3839 96.055 73.2679 96.0133 73.1821 95.9994C70.4027 95.9251 67.9876 94.8371 66.5237 92.9903C65.257 91.3918 64.8208 89.3827 65.2964 87.3342C66.2824 83.0422 71.05 79.6735 76.154 79.6666L123.832 79.6178L110.256 68.577C110.186 68.5213 110.119 68.4586 110.061 68.389C108.574 67.0852 107.796 65.3754 107.868 63.5542C107.947 61.5242 109.1 59.5823 111.033 58.2298C114.566 55.7566 119.884 55.7682 123.134 58.2622L164.284 89.8537C164.335 89.8954 164.386 89.9395 164.432 89.9859C168.62 93.2594 172.109 97.1246 174.805 101.475C177.844 106.349 179.791 111.678 180.593 117.313C181.004 120.206 181.099 123.146 180.874 126.05C180.644 128.999 180.069 131.959 179.167 134.852C177.352 140.636 174.304 145.926 170.109 150.577C165.759 155.398 160.447 159.231 154.322 161.973C147.837 164.866 140.88 166.335 133.639 166.346C133.609 166.344 133.579 166.344 133.549 166.344ZM88.5776 120.682C88.8491 120.682 89.1205 120.749 89.3664 120.888C89.9487 121.213 90.2735 121.858 90.1877 122.519C90.1854 122.547 89.8281 125.266 89.8559 126.83C89.8815 128.354 90.3942 131.535 91.1783 134.02C92.8464 139.346 95.6629 144.221 99.5512 148.513C103.6 152.99 108.55 156.542 114.262 159.073C120.292 161.744 126.781 163.096 133.553 163.096C133.581 163.096 133.607 163.096 133.634 163.096C140.418 163.089 146.93 161.711 152.997 159.006C158.704 156.452 163.653 152.883 167.699 148.401C171.58 144.1 174.394 139.214 176.067 133.88C176.898 131.222 177.427 128.505 177.635 125.8C177.842 123.132 177.756 120.431 177.378 117.77C176.643 112.587 174.847 107.681 172.049 103.189C169.52 99.1128 166.237 95.4959 162.291 92.4335C162.242 92.3964 162.198 92.357 162.154 92.3152L121.264 60.9186C119.044 59.2111 115.258 59.2343 112.898 60.8885C111.803 61.6541 111.156 62.6679 111.116 63.6748C111.082 64.5518 111.499 65.3707 112.325 66.0458C112.383 66.0946 112.439 66.1456 112.488 66.2013L129.424 79.9728C129.955 80.4066 130.159 81.1282 129.932 81.7754C129.7 82.4227 129.089 82.8566 128.403 82.8566L76.2306 82.9122C72.565 82.9146 69.1128 85.2253 68.4632 88.0603C68.2127 89.1461 68.4215 90.1506 69.0711 90.9696C69.9619 92.0948 71.5604 92.7467 73.4559 92.7514C73.5324 92.7514 73.6067 92.7583 73.6809 92.7676L99.8853 92.7166C100.581 92.7166 101.201 93.1597 101.426 93.8186C101.651 94.4774 101.428 95.2059 100.876 95.6305L53.6848 131.853C51.3625 133.627 49.9635 135.889 49.6712 138.193C49.5297 139.307 49.5947 140.935 50.7083 142.36C51.8543 143.826 53.476 144.292 54.636 144.427C57.0395 144.694 59.6449 143.859 61.8002 142.119L87.5475 121.046C87.8445 120.805 88.2087 120.682 88.5776 120.682ZM133.581 145.74C125.354 145.74 117.803 142.668 112.316 137.087C109.664 134.398 107.687 131.303 106.446 127.89C105.238 124.57 104.783 121.097 105.091 117.568C105.379 114.167 106.372 110.901 108.042 107.866C109.655 104.934 111.85 102.326 114.562 100.113C119.823 95.8254 126.591 93.4613 133.623 93.452C140.657 93.4961 147.429 95.7882 152.691 100.057C155.405 102.27 157.595 104.871 159.208 107.792C160.873 110.803 161.869 114.068 162.17 117.49C162.474 121.014 162.017 124.484 160.811 127.804C159.565 131.224 157.591 134.326 154.948 137.019C149.445 142.627 141.877 145.722 133.639 145.74C133.62 145.74 133.6 145.74 133.581 145.74ZM133.66 96.7023C133.648 96.7023 133.637 96.7023 133.625 96.7023C127.338 96.7093 121.297 98.8158 116.612 102.63C114.228 104.579 112.3 106.869 110.887 109.434C109.437 112.068 108.574 114.898 108.325 117.847C108.059 120.905 108.453 123.909 109.497 126.779C110.578 129.748 112.307 132.451 114.629 134.808C119.506 139.764 126.231 142.492 133.581 142.492C133.6 142.492 133.616 142.492 133.632 142.492C140.991 142.478 147.735 139.727 152.626 134.746C154.946 132.384 156.67 129.674 157.755 126.693C158.799 123.821 159.196 120.819 158.934 117.77C158.674 114.805 157.809 111.975 156.363 109.36C154.955 106.804 153.027 104.521 150.64 102.574C145.97 98.788 139.94 96.7023 133.66 96.7023Z" fill="#472B29"/>
<path d="M133.627 159.616H133.553C127.268 159.616 121.252 158.363 115.673 155.892C115.086 155.633 114.821 154.948 115.081 154.361C115.341 153.774 116.032 153.512 116.61 153.772C121.893 156.111 127.593 157.298 133.553 157.298C134.193 157.298 134.75 157.818 134.75 158.458C134.75 159.099 134.268 159.616 133.627 159.616ZM110.012 152.624C109.789 152.624 109.567 152.561 109.367 152.429C107.648 151.278 106.015 149.986 104.511 148.591C104.04 148.155 104.013 147.422 104.451 146.951C104.887 146.483 105.625 146.457 106.089 146.891C107.502 148.204 109.04 149.417 110.659 150.501C111.191 150.858 111.334 151.577 110.977 152.111C110.752 152.443 110.386 152.624 110.012 152.624ZM100.655 143.706C100.301 143.706 99.9479 143.543 99.7229 143.235C97.4029 140.091 95.6466 136.641 94.5005 132.985C93.7813 130.704 93.3544 127.862 93.3359 126.774C93.3243 126.134 93.8347 125.605 94.475 125.593C95.0968 125.607 95.6443 126.092 95.6559 126.732C95.6721 127.684 96.0921 130.319 96.7138 132.289C97.7833 135.704 99.4236 138.922 101.59 141.859C101.971 142.374 101.862 143.1 101.347 143.48C101.136 143.631 100.894 143.706 100.655 143.706Z" fill="#472B29"/>
</g>
<defs>
<filter id="filter0_d_244_135" x="-4" y="0" width="240" height="240" filterUnits="userSpaceOnUse" color-interpolation-filters="sRGB">
<feFlood flood-opacity="0" result="BackgroundImageFix"/>
<feColorMatrix in="SourceAlpha" type="matrix" values="0 0 0 0 0 0 0 0 0 0 0 0 0 0 0 0 0 0 127 0" result="hardAlpha"/>
<feOffset dy="4"/>
<feGaussianBlur stdDeviation="2"/>
<feComposite in2="hardAlpha" operator="out"/>
<feColorMatrix type="matrix" values="0 0 0 0 0 0 0 0 0 0 0 0 0 0 0 0 0 0 0.25 0"/>
<feBlend mode="normal" in2="BackgroundImageFix" result="effect1_dropShadow_244_135"/>
<feBlend mode="normal" in="SourceGraphic" in2="effect1_dropShadow_244_135" result="shape"/>
</filter>
</defs>
</svg>
