<svg width="195" height="195" viewBox="0 0 195 195" fill="none" xmlns="http://www.w3.org/2000/svg">
<g opacity="0.4">
<path d="M24.375 40.625C24.375 31.6509 31.6509 24.375 40.625 24.375H154.375C163.349 24.375 170.625 31.6509 170.625 40.625V154.375C170.625 163.349 163.349 170.625 154.375 170.625H40.625C31.6509 170.625 24.375 163.349 24.375 154.375V40.625Z" fill="#C34BC7"/>
<path d="M36.5625 36.5625V158.437H158.437V36.5625H36.5625ZM77.5653 88.1359L85.3409 68.2987H98.7106L85.1418 96.9434L99.0275 126.063H85.4993L77.5653 105.869L69.6718 126.063H56.1437L70.0294 96.9434L56.42 68.2987H69.7897L77.5653 88.1359ZM101.843 103.293C101.843 96.2568 103.033 91.0081 105.414 87.5428C107.794 84.0775 111.256 82.3468 115.81 82.3468C119.112 82.3468 121.867 83.7768 124.061 86.6328V65.13H135.366V126.067H125.17L124.654 121.704C122.354 125.145 119.389 126.864 115.765 126.864C111.272 126.864 107.839 125.145 105.471 121.704C103.102 118.263 101.892 113.214 101.839 106.551L101.843 103.293ZM113.112 106.108C113.112 110.342 113.559 113.299 114.461 114.977C115.363 116.655 116.882 117.496 119.023 117.496C121.245 117.496 122.923 116.504 124.061 114.522V94.9243C122.951 92.8078 121.282 91.7515 119.064 91.7515C117 91.7515 115.493 92.5843 114.542 94.25C113.592 95.9156 113.112 98.8812 113.112 103.139V106.108Z" fill="#16020B"/>
</g>
</svg>
