<svg width="1071" height="92" viewBox="0 0 1071 92" fill="none" xmlns="http://www.w3.org/2000/svg">
<g filter="url(#filter0_d_268_273)">
<path d="M4 16H7.2V12.8H39.2V16H42.4V25.6H16.8V32H39.2V35.2H42.4V60.8H39.2V64H7.2V60.8H4V51.2H29.6V44.8H7.2V41.6H4V16ZM7.2 19.2H10.4V16H7.2V19.2ZM48.8125 19.2H55.2125V3.2H58.4125V0H68.0125V19.2H77.6125V32H68.0125V51.2H80.8125V60.8H77.6125V64H58.4125V60.8H55.2125V32H48.8125V19.2ZM58.4125 6.4H61.6125V3.2H58.4125V6.4ZM87.1875 16H90.3875V12.8H109.588V16H112.788V25.6H106.388V51.2H112.788V64H87.1875V51.2H93.5875V25.6H87.1875V16ZM93.5875 3.2H96.7875V0H106.388V9.6H93.5875V3.2ZM90.3875 19.2H93.5875V16H90.3875V19.2ZM119.188 3.2H122.388V0H131.988V64H119.188V3.2ZM122.388 6.4H125.588V3.2H122.388V6.4ZM138.375 3.2H141.575V0H151.175V64H138.375V3.2ZM141.575 6.4H144.775V3.2H141.575V6.4ZM202.375 3.2H205.575V0H215.175V12.8H237.575V16H240.775V64H227.975V25.6H215.175V64H202.375V3.2ZM205.575 6.4H208.775V3.2H205.575V6.4ZM247.188 16H250.388V12.8H282.388V16H285.588V64H250.388V60.8H247.188V35.2H250.388V32H272.788V25.6H247.188V16ZM259.988 51.2H272.788V44.8H259.988V51.2ZM250.388 19.2H253.588V16H250.388V19.2ZM292 16H295.2V12.8H304.8V48H308V51.2H314.4V48H317.6V12.8H327.2V16H330.4V51.2H327.2V54.4H324V57.6H320.8V60.8H317.6V64H304.8V60.8H301.6V57.6H298.4V54.4H295.2V51.2H292V16ZM295.2 19.2H298.4V16H295.2V19.2ZM336.812 16H340.013V12.8H372.013V16H375.213V41.6H372.013V44.8H349.613V51.2H375.213V64H340.013V60.8H336.812V16ZM349.613 32H362.413V25.6H349.613V32ZM340.013 19.2H343.213V16H340.013V19.2ZM426.438 16H429.638V12.8H461.638V16H464.838V83.2H452.038V64H429.638V60.8H426.438V16ZM439.238 51.2H452.038V25.6H439.238V51.2ZM429.638 19.2H432.838V16H429.638V19.2ZM471.25 16H474.45V12.8H484.05V51.2H496.85V12.8H506.45V16H509.65V60.8H506.45V64H474.45V60.8H471.25V16ZM474.45 19.2H477.65V16H474.45V19.2ZM516.062 16H519.263V12.8H551.263V16H554.463V41.6H551.263V44.8H528.863V51.2H554.463V64H519.263V60.8H516.062V16ZM528.863 32H541.663V25.6H528.863V32ZM519.263 19.2H522.463V16H519.263V19.2ZM560.875 16H564.075V12.8H596.075V16H599.275V25.6H573.675V32H596.075V35.2H599.275V60.8H596.075V64H564.075V60.8H560.875V51.2H586.475V44.8H564.075V41.6H560.875V16ZM564.075 19.2H567.275V16H564.075V19.2ZM605.688 19.2H612.088V3.2H615.288V0H624.888V19.2H634.488V32H624.888V51.2H637.688V60.8H634.488V64H615.288V60.8H612.088V32H605.688V19.2ZM615.288 6.4H618.488V3.2H615.288V6.4ZM644.062 16H647.263V12.8H666.463V16H669.663V25.6H663.263V51.2H669.663V64H644.062V51.2H650.463V25.6H644.062V16ZM650.463 3.2H653.663V0H663.263V9.6H650.463V3.2ZM647.263 19.2H650.463V16H647.263V19.2ZM676.062 16H679.263V12.8H711.263V16H714.463V60.8H711.263V64H679.263V60.8H676.062V16ZM688.863 51.2H701.663V25.6H688.863V51.2ZM679.263 19.2H682.463V16H679.263V19.2ZM720.875 16H724.075V12.8H756.075V16H759.275V64H746.475V25.6H733.675V64H720.875V16ZM724.075 19.2H727.275V16H724.075V19.2ZM765.688 16H768.888V12.8H800.888V16H804.088V25.6H778.488V32H800.888V35.2H804.088V60.8H800.888V64H768.888V60.8H765.688V51.2H791.288V44.8H768.888V41.6H765.688V16ZM768.888 19.2H772.088V16H768.888V19.2ZM855.312 16H858.513V12.8H890.513V16H893.713V64H858.513V60.8H855.312V35.2H858.513V32H880.913V25.6H855.312V16ZM868.113 51.2H880.913V44.8H868.113V51.2ZM858.513 19.2H861.713V16H858.513V19.2ZM900.125 3.2H903.325V0H912.925V12.8H935.325V16H938.525V60.8H935.325V64H900.125V3.2ZM912.925 51.2H925.725V25.6H912.925V51.2ZM903.325 6.4H906.525V3.2H903.325V6.4ZM944.938 16H948.138V12.8H980.138V16H983.338V60.8H980.138V64H948.138V60.8H944.938V16ZM957.738 51.2H970.538V25.6H957.738V51.2ZM948.138 19.2H951.338V16H948.138V19.2ZM989.75 16H992.95V12.8H1002.55V51.2H1015.35V12.8H1024.95V16H1028.15V60.8H1024.95V64H992.95V60.8H989.75V16ZM992.95 19.2H996.15V16H992.95V19.2ZM1034.56 19.2H1040.96V3.2H1044.16V0H1053.76V19.2H1063.36V32H1053.76V51.2H1066.56V60.8H1063.36V64H1044.16V60.8H1040.96V32H1034.56V19.2ZM1044.16 6.4H1047.36V3.2H1044.16V6.4Z" fill="url(#paint0_linear_268_273)" shape-rendering="crispEdges"/>
</g>
<defs>
<filter id="filter0_d_268_273" x="0" y="0" width="1070.56" height="91.2" filterUnits="userSpaceOnUse" color-interpolation-filters="sRGB">
<feFlood flood-opacity="0" result="BackgroundImageFix"/>
<feColorMatrix in="SourceAlpha" type="matrix" values="0 0 0 0 0 0 0 0 0 0 0 0 0 0 0 0 0 0 127 0" result="hardAlpha"/>
<feOffset dy="4"/>
<feGaussianBlur stdDeviation="2"/>
<feComposite in2="hardAlpha" operator="out"/>
<feColorMatrix type="matrix" values="0 0 0 0 0.592157 0 0 0 0 0.278431 0 0 0 0 1 0 0 0 1 0"/>
<feBlend mode="normal" in2="BackgroundImageFix" result="effect1_dropShadow_268_273"/>
<feBlend mode="normal" in="SourceGraphic" in2="effect1_dropShadow_268_273" result="shape"/>
</filter>
<linearGradient id="paint0_linear_268_273" x1="538.5" y1="16" x2="538.5" y2="80" gradientUnits="userSpaceOnUse">
<stop stop-color="#E2521D"/>
<stop offset="1" stop-color="#E2521D" stop-opacity="0"/>
</linearGradient>
</defs>
</svg>
